<?xml version="1.0" encoding="utf-8" standalone="no"?>
<!DOCTYPE svg PUBLIC "-//W3C//DTD SVG 1.1//EN"
  "http://www.w3.org/Graphics/SVG/1.1/DTD/svg11.dtd">
<svg xmlns:xlink="http://www.w3.org/1999/xlink" width="564.55pt" height="418.522187pt" viewBox="0 0 564.55 418.522187" xmlns="http://www.w3.org/2000/svg" version="1.1">
 <metadata>
  <rdf:RDF xmlns:dc="http://purl.org/dc/elements/1.1/" xmlns:cc="http://creativecommons.org/ns#" xmlns:rdf="http://www.w3.org/1999/02/22-rdf-syntax-ns#">
   <cc:Work>
    <dc:type rdf:resource="http://purl.org/dc/dcmitype/StillImage"/>
    <dc:date>2025-04-15T16:02:54.596708</dc:date>
    <dc:format>image/svg+xml</dc:format>
    <dc:creator>
     <cc:Agent>
      <dc:title>Matplotlib v3.10.1, https://matplotlib.org/</dc:title>
     </cc:Agent>
    </dc:creator>
   </cc:Work>
  </rdf:RDF>
 </metadata>
 <defs>
  <style type="text/css">*{stroke-linejoin: round; stroke-linecap: butt}</style>
 </defs>
 <g id="figure_1">
  <g id="patch_1">
   <path d="M 0 418.522187 
L 564.55 418.522187 
L 564.55 0 
L 0 0 
z
" style="fill: #ffffff"/>
  </g>
  <g id="axes_1">
   <g id="patch_2">
    <path d="M 58.575 373.659062 
L 549.715 373.659062 
L 549.715 11.759062 
L 58.575 11.759062 
z
" style="fill: #ffffff"/>
   </g>
   <g id="matplotlib.axis_1">
    <g id="xtick_1">
     <g id="line2d_1">
      <path d="M 58.575 373.659062 
L 58.575 11.759062 
" clip-path="url(#p0d7ad626e0)" style="fill: none; stroke-dasharray: 2.96,1.28; stroke-dashoffset: 0; stroke: #cccccc; stroke-opacity: 0.6; stroke-width: 0.8"/>
     </g>
     <g id="text_1">
      <!-- −60 -->
      <g style="fill: #262626" transform="translate(45.912187 391.277187) scale(0.12 -0.12)">
       <defs>
        <path id="DejaVuSans-2212" d="M 678 2272 
L 4684 2272 
L 4684 1741 
L 678 1741 
L 678 2272 
z
" transform="scale(0.015625)"/>
        <path id="DejaVuSans-36" d="M 2113 2584 
Q 1688 2584 1439 2293 
Q 1191 2003 1191 1497 
Q 1191 994 1439 701 
Q 1688 409 2113 409 
Q 2538 409 2786 701 
Q 3034 994 3034 1497 
Q 3034 2003 2786 2293 
Q 2538 2584 2113 2584 
z
M 3366 4563 
L 3366 3988 
Q 3128 4100 2886 4159 
Q 2644 4219 2406 4219 
Q 1781 4219 1451 3797 
Q 1122 3375 1075 2522 
Q 1259 2794 1537 2939 
Q 1816 3084 2150 3084 
Q 2853 3084 3261 2657 
Q 3669 2231 3669 1497 
Q 3669 778 3244 343 
Q 2819 -91 2113 -91 
Q 1303 -91 875 529 
Q 447 1150 447 2328 
Q 447 3434 972 4092 
Q 1497 4750 2381 4750 
Q 2619 4750 2861 4703 
Q 3103 4656 3366 4563 
z
" transform="scale(0.015625)"/>
        <path id="DejaVuSans-30" d="M 2034 4250 
Q 1547 4250 1301 3770 
Q 1056 3291 1056 2328 
Q 1056 1369 1301 889 
Q 1547 409 2034 409 
Q 2525 409 2770 889 
Q 3016 1369 3016 2328 
Q 3016 3291 2770 3770 
Q 2525 4250 2034 4250 
z
M 2034 4750 
Q 2819 4750 3233 4129 
Q 3647 3509 3647 2328 
Q 3647 1150 3233 529 
Q 2819 -91 2034 -91 
Q 1250 -91 836 529 
Q 422 1150 422 2328 
Q 422 3509 836 4129 
Q 1250 4750 2034 4750 
z
" transform="scale(0.015625)"/>
       </defs>
       <use xlink:href="#DejaVuSans-2212"/>
       <use xlink:href="#DejaVuSans-36" transform="translate(83.789062 0)"/>
       <use xlink:href="#DejaVuSans-30" transform="translate(147.412109 0)"/>
      </g>
     </g>
    </g>
    <g id="xtick_2">
     <g id="line2d_2">
      <path d="M 140.431667 373.659062 
L 140.431667 11.759062 
" clip-path="url(#p0d7ad626e0)" style="fill: none; stroke-dasharray: 2.96,1.28; stroke-dashoffset: 0; stroke: #cccccc; stroke-opacity: 0.6; stroke-width: 0.8"/>
     </g>
     <g id="text_2">
      <!-- −40 -->
      <g style="fill: #262626" transform="translate(127.768854 391.277187) scale(0.12 -0.12)">
       <defs>
        <path id="DejaVuSans-34" d="M 2419 4116 
L 825 1625 
L 2419 1625 
L 2419 4116 
z
M 2253 4666 
L 3047 4666 
L 3047 1625 
L 3713 1625 
L 3713 1100 
L 3047 1100 
L 3047 0 
L 2419 0 
L 2419 1100 
L 313 1100 
L 313 1709 
L 2253 4666 
z
" transform="scale(0.015625)"/>
       </defs>
       <use xlink:href="#DejaVuSans-2212"/>
       <use xlink:href="#DejaVuSans-34" transform="translate(83.789062 0)"/>
       <use xlink:href="#DejaVuSans-30" transform="translate(147.412109 0)"/>
      </g>
     </g>
    </g>
    <g id="xtick_3">
     <g id="line2d_3">
      <path d="M 222.288333 373.659062 
L 222.288333 11.759062 
" clip-path="url(#p0d7ad626e0)" style="fill: none; stroke-dasharray: 2.96,1.28; stroke-dashoffset: 0; stroke: #cccccc; stroke-opacity: 0.6; stroke-width: 0.8"/>
     </g>
     <g id="text_3">
      <!-- −20 -->
      <g style="fill: #262626" transform="translate(209.625521 391.277187) scale(0.12 -0.12)">
       <defs>
        <path id="DejaVuSans-32" d="M 1228 531 
L 3431 531 
L 3431 0 
L 469 0 
L 469 531 
Q 828 903 1448 1529 
Q 2069 2156 2228 2338 
Q 2531 2678 2651 2914 
Q 2772 3150 2772 3378 
Q 2772 3750 2511 3984 
Q 2250 4219 1831 4219 
Q 1534 4219 1204 4116 
Q 875 4013 500 3803 
L 500 4441 
Q 881 4594 1212 4672 
Q 1544 4750 1819 4750 
Q 2544 4750 2975 4387 
Q 3406 4025 3406 3419 
Q 3406 3131 3298 2873 
Q 3191 2616 2906 2266 
Q 2828 2175 2409 1742 
Q 1991 1309 1228 531 
z
" transform="scale(0.015625)"/>
       </defs>
       <use xlink:href="#DejaVuSans-2212"/>
       <use xlink:href="#DejaVuSans-32" transform="translate(83.789062 0)"/>
       <use xlink:href="#DejaVuSans-30" transform="translate(147.412109 0)"/>
      </g>
     </g>
    </g>
    <g id="xtick_4">
     <g id="line2d_4">
      <path d="M 304.145 373.659062 
L 304.145 11.759062 
" clip-path="url(#p0d7ad626e0)" style="fill: none; stroke-dasharray: 2.96,1.28; stroke-dashoffset: 0; stroke: #cccccc; stroke-opacity: 0.6; stroke-width: 0.8"/>
     </g>
     <g id="text_4">
      <!-- 0 -->
      <g style="fill: #262626" transform="translate(300.3275 391.277187) scale(0.12 -0.12)">
       <use xlink:href="#DejaVuSans-30"/>
      </g>
     </g>
    </g>
    <g id="xtick_5">
     <g id="line2d_5">
      <path d="M 386.001667 373.659062 
L 386.001667 11.759062 
" clip-path="url(#p0d7ad626e0)" style="fill: none; stroke-dasharray: 2.96,1.28; stroke-dashoffset: 0; stroke: #cccccc; stroke-opacity: 0.6; stroke-width: 0.8"/>
     </g>
     <g id="text_5">
      <!-- 20 -->
      <g style="fill: #262626" transform="translate(378.366667 391.277187) scale(0.12 -0.12)">
       <use xlink:href="#DejaVuSans-32"/>
       <use xlink:href="#DejaVuSans-30" transform="translate(63.623047 0)"/>
      </g>
     </g>
    </g>
    <g id="xtick_6">
     <g id="line2d_6">
      <path d="M 467.858333 373.659062 
L 467.858333 11.759062 
" clip-path="url(#p0d7ad626e0)" style="fill: none; stroke-dasharray: 2.96,1.28; stroke-dashoffset: 0; stroke: #cccccc; stroke-opacity: 0.6; stroke-width: 0.8"/>
     </g>
     <g id="text_6">
      <!-- 40 -->
      <g style="fill: #262626" transform="translate(460.223333 391.277187) scale(0.12 -0.12)">
       <use xlink:href="#DejaVuSans-34"/>
       <use xlink:href="#DejaVuSans-30" transform="translate(63.623047 0)"/>
      </g>
     </g>
    </g>
    <g id="xtick_7">
     <g id="line2d_7">
      <path d="M 549.715 373.659062 
L 549.715 11.759062 
" clip-path="url(#p0d7ad626e0)" style="fill: none; stroke-dasharray: 2.96,1.28; stroke-dashoffset: 0; stroke: #cccccc; stroke-opacity: 0.6; stroke-width: 0.8"/>
     </g>
     <g id="text_7">
      <!-- 60 -->
      <g style="fill: #262626" transform="translate(542.08 391.277187) scale(0.12 -0.12)">
       <use xlink:href="#DejaVuSans-36"/>
       <use xlink:href="#DejaVuSans-30" transform="translate(63.623047 0)"/>
      </g>
     </g>
    </g>
    <g id="text_8">
     <!-- Feature 1 -->
     <g style="fill: #262626" transform="translate(266.335156 408.410625) scale(0.14 -0.14)">
      <defs>
       <path id="DejaVuSans-Bold-46" d="M 588 4666 
L 3834 4666 
L 3834 3756 
L 1791 3756 
L 1791 2888 
L 3713 2888 
L 3713 1978 
L 1791 1978 
L 1791 0 
L 588 0 
L 588 4666 
z
" transform="scale(0.015625)"/>
       <path id="DejaVuSans-Bold-65" d="M 4031 1759 
L 4031 1441 
L 1416 1441 
Q 1456 1047 1700 850 
Q 1944 653 2381 653 
Q 2734 653 3104 758 
Q 3475 863 3866 1075 
L 3866 213 
Q 3469 63 3072 -14 
Q 2675 -91 2278 -91 
Q 1328 -91 801 392 
Q 275 875 275 1747 
Q 275 2603 792 3093 
Q 1309 3584 2216 3584 
Q 3041 3584 3536 3087 
Q 4031 2591 4031 1759 
z
M 2881 2131 
Q 2881 2450 2695 2645 
Q 2509 2841 2209 2841 
Q 1884 2841 1681 2658 
Q 1478 2475 1428 2131 
L 2881 2131 
z
" transform="scale(0.015625)"/>
       <path id="DejaVuSans-Bold-61" d="M 2106 1575 
Q 1756 1575 1579 1456 
Q 1403 1338 1403 1106 
Q 1403 894 1545 773 
Q 1688 653 1941 653 
Q 2256 653 2472 879 
Q 2688 1106 2688 1447 
L 2688 1575 
L 2106 1575 
z
M 3816 1997 
L 3816 0 
L 2688 0 
L 2688 519 
Q 2463 200 2181 54 
Q 1900 -91 1497 -91 
Q 953 -91 614 226 
Q 275 544 275 1050 
Q 275 1666 698 1953 
Q 1122 2241 2028 2241 
L 2688 2241 
L 2688 2328 
Q 2688 2594 2478 2717 
Q 2269 2841 1825 2841 
Q 1466 2841 1156 2769 
Q 847 2697 581 2553 
L 581 3406 
Q 941 3494 1303 3539 
Q 1666 3584 2028 3584 
Q 2975 3584 3395 3211 
Q 3816 2838 3816 1997 
z
" transform="scale(0.015625)"/>
       <path id="DejaVuSans-Bold-74" d="M 1759 4494 
L 1759 3500 
L 2913 3500 
L 2913 2700 
L 1759 2700 
L 1759 1216 
Q 1759 972 1856 886 
Q 1953 800 2241 800 
L 2816 800 
L 2816 0 
L 1856 0 
Q 1194 0 917 276 
Q 641 553 641 1216 
L 641 2700 
L 84 2700 
L 84 3500 
L 641 3500 
L 641 4494 
L 1759 4494 
z
" transform="scale(0.015625)"/>
       <path id="DejaVuSans-Bold-75" d="M 500 1363 
L 500 3500 
L 1625 3500 
L 1625 3150 
Q 1625 2866 1622 2436 
Q 1619 2006 1619 1863 
Q 1619 1441 1641 1255 
Q 1663 1069 1716 984 
Q 1784 875 1895 815 
Q 2006 756 2150 756 
Q 2500 756 2700 1025 
Q 2900 1294 2900 1772 
L 2900 3500 
L 4019 3500 
L 4019 0 
L 2900 0 
L 2900 506 
Q 2647 200 2364 54 
Q 2081 -91 1741 -91 
Q 1134 -91 817 281 
Q 500 653 500 1363 
z
" transform="scale(0.015625)"/>
       <path id="DejaVuSans-Bold-72" d="M 3138 2547 
Q 2991 2616 2845 2648 
Q 2700 2681 2553 2681 
Q 2122 2681 1889 2404 
Q 1656 2128 1656 1613 
L 1656 0 
L 538 0 
L 538 3500 
L 1656 3500 
L 1656 2925 
Q 1872 3269 2151 3426 
Q 2431 3584 2822 3584 
Q 2878 3584 2943 3579 
Q 3009 3575 3134 3559 
L 3138 2547 
z
" transform="scale(0.015625)"/>
       <path id="DejaVuSans-Bold-20" transform="scale(0.015625)"/>
       <path id="DejaVuSans-Bold-31" d="M 750 831 
L 1813 831 
L 1813 3847 
L 722 3622 
L 722 4441 
L 1806 4666 
L 2950 4666 
L 2950 831 
L 4013 831 
L 4013 0 
L 750 0 
L 750 831 
z
" transform="scale(0.015625)"/>
      </defs>
      <use xlink:href="#DejaVuSans-Bold-46"/>
      <use xlink:href="#DejaVuSans-Bold-65" transform="translate(64.310547 0)"/>
      <use xlink:href="#DejaVuSans-Bold-61" transform="translate(132.132812 0)"/>
      <use xlink:href="#DejaVuSans-Bold-74" transform="translate(199.613281 0)"/>
      <use xlink:href="#DejaVuSans-Bold-75" transform="translate(247.416016 0)"/>
      <use xlink:href="#DejaVuSans-Bold-72" transform="translate(318.607422 0)"/>
      <use xlink:href="#DejaVuSans-Bold-65" transform="translate(367.923828 0)"/>
      <use xlink:href="#DejaVuSans-Bold-20" transform="translate(435.746094 0)"/>
      <use xlink:href="#DejaVuSans-Bold-31" transform="translate(470.560547 0)"/>
     </g>
    </g>
   </g>
   <g id="matplotlib.axis_2">
    <g id="ytick_1">
     <g id="line2d_8">
      <path d="M 58.575 373.659062 
L 549.715 373.659062 
" clip-path="url(#p0d7ad626e0)" style="fill: none; stroke-dasharray: 2.96,1.28; stroke-dashoffset: 0; stroke: #cccccc; stroke-opacity: 0.6; stroke-width: 0.8"/>
     </g>
     <g id="text_9">
      <!-- −60 -->
      <g style="fill: #262626" transform="translate(24.749375 378.218125) scale(0.12 -0.12)">
       <use xlink:href="#DejaVuSans-2212"/>
       <use xlink:href="#DejaVuSans-36" transform="translate(83.789062 0)"/>
       <use xlink:href="#DejaVuSans-30" transform="translate(147.412109 0)"/>
      </g>
     </g>
    </g>
    <g id="ytick_2">
     <g id="line2d_9">
      <path d="M 58.575 313.342396 
L 549.715 313.342396 
" clip-path="url(#p0d7ad626e0)" style="fill: none; stroke-dasharray: 2.96,1.28; stroke-dashoffset: 0; stroke: #cccccc; stroke-opacity: 0.6; stroke-width: 0.8"/>
     </g>
     <g id="text_10">
      <!-- −40 -->
      <g style="fill: #262626" transform="translate(24.749375 317.901458) scale(0.12 -0.12)">
       <use xlink:href="#DejaVuSans-2212"/>
       <use xlink:href="#DejaVuSans-34" transform="translate(83.789062 0)"/>
       <use xlink:href="#DejaVuSans-30" transform="translate(147.412109 0)"/>
      </g>
     </g>
    </g>
    <g id="ytick_3">
     <g id="line2d_10">
      <path d="M 58.575 253.025729 
L 549.715 253.025729 
" clip-path="url(#p0d7ad626e0)" style="fill: none; stroke-dasharray: 2.96,1.28; stroke-dashoffset: 0; stroke: #cccccc; stroke-opacity: 0.6; stroke-width: 0.8"/>
     </g>
     <g id="text_11">
      <!-- −20 -->
      <g style="fill: #262626" transform="translate(24.749375 257.584792) scale(0.12 -0.12)">
       <use xlink:href="#DejaVuSans-2212"/>
       <use xlink:href="#DejaVuSans-32" transform="translate(83.789062 0)"/>
       <use xlink:href="#DejaVuSans-30" transform="translate(147.412109 0)"/>
      </g>
     </g>
    </g>
    <g id="ytick_4">
     <g id="line2d_11">
      <path d="M 58.575 192.709062 
L 549.715 192.709062 
" clip-path="url(#p0d7ad626e0)" style="fill: none; stroke-dasharray: 2.96,1.28; stroke-dashoffset: 0; stroke: #cccccc; stroke-opacity: 0.6; stroke-width: 0.8"/>
     </g>
     <g id="text_12">
      <!-- 0 -->
      <g style="fill: #262626" transform="translate(42.44 197.268125) scale(0.12 -0.12)">
       <use xlink:href="#DejaVuSans-30"/>
      </g>
     </g>
    </g>
    <g id="ytick_5">
     <g id="line2d_12">
      <path d="M 58.575 132.392396 
L 549.715 132.392396 
" clip-path="url(#p0d7ad626e0)" style="fill: none; stroke-dasharray: 2.96,1.28; stroke-dashoffset: 0; stroke: #cccccc; stroke-opacity: 0.6; stroke-width: 0.8"/>
     </g>
     <g id="text_13">
      <!-- 20 -->
      <g style="fill: #262626" transform="translate(34.805 136.951458) scale(0.12 -0.12)">
       <use xlink:href="#DejaVuSans-32"/>
       <use xlink:href="#DejaVuSans-30" transform="translate(63.623047 0)"/>
      </g>
     </g>
    </g>
    <g id="ytick_6">
     <g id="line2d_13">
      <path d="M 58.575 72.075729 
L 549.715 72.075729 
" clip-path="url(#p0d7ad626e0)" style="fill: none; stroke-dasharray: 2.96,1.28; stroke-dashoffset: 0; stroke: #cccccc; stroke-opacity: 0.6; stroke-width: 0.8"/>
     </g>
     <g id="text_14">
      <!-- 40 -->
      <g style="fill: #262626" transform="translate(34.805 76.634792) scale(0.12 -0.12)">
       <use xlink:href="#DejaVuSans-34"/>
       <use xlink:href="#DejaVuSans-30" transform="translate(63.623047 0)"/>
      </g>
     </g>
    </g>
    <g id="ytick_7">
     <g id="line2d_14">
      <path d="M 58.575 11.759062 
L 549.715 11.759062 
" clip-path="url(#p0d7ad626e0)" style="fill: none; stroke-dasharray: 2.96,1.28; stroke-dashoffset: 0; stroke: #cccccc; stroke-opacity: 0.6; stroke-width: 0.8"/>
     </g>
     <g id="text_15">
      <!-- 60 -->
      <g style="fill: #262626" transform="translate(34.805 16.318125) scale(0.12 -0.12)">
       <use xlink:href="#DejaVuSans-36"/>
       <use xlink:href="#DejaVuSans-30" transform="translate(63.623047 0)"/>
      </g>
     </g>
    </g>
    <g id="text_16">
     <!-- Feature 2 -->
     <g style="fill: #262626" transform="translate(17.837813 230.518906) rotate(-90) scale(0.14 -0.14)">
      <defs>
       <path id="DejaVuSans-Bold-32" d="M 1844 884 
L 3897 884 
L 3897 0 
L 506 0 
L 506 884 
L 2209 2388 
Q 2438 2594 2547 2791 
Q 2656 2988 2656 3200 
Q 2656 3528 2436 3728 
Q 2216 3928 1850 3928 
Q 1569 3928 1234 3808 
Q 900 3688 519 3450 
L 519 4475 
Q 925 4609 1322 4679 
Q 1719 4750 2100 4750 
Q 2938 4750 3402 4381 
Q 3866 4013 3866 3353 
Q 3866 2972 3669 2642 
Q 3472 2313 2841 1759 
L 1844 884 
z
" transform="scale(0.015625)"/>
      </defs>
      <use xlink:href="#DejaVuSans-Bold-46"/>
      <use xlink:href="#DejaVuSans-Bold-65" transform="translate(64.310547 0)"/>
      <use xlink:href="#DejaVuSans-Bold-61" transform="translate(132.132812 0)"/>
      <use xlink:href="#DejaVuSans-Bold-74" transform="translate(199.613281 0)"/>
      <use xlink:href="#DejaVuSans-Bold-75" transform="translate(247.416016 0)"/>
      <use xlink:href="#DejaVuSans-Bold-72" transform="translate(318.607422 0)"/>
      <use xlink:href="#DejaVuSans-Bold-65" transform="translate(367.923828 0)"/>
      <use xlink:href="#DejaVuSans-Bold-20" transform="translate(435.746094 0)"/>
      <use xlink:href="#DejaVuSans-Bold-32" transform="translate(470.560547 0)"/>
     </g>
    </g>
   </g>
   <g id="QuadContourSet_1">
    <path d="M 58.575 370.00351 
L 58.575 366.347947 
L 58.575 362.692395 
L 58.575 359.036843 
L 58.575 355.381279 
L 58.575 351.725727 
L 58.575 348.070175 
L 58.575 344.414623 
L 58.575 340.759059 
L 58.575 337.103507 
L 58.575 333.447955 
L 58.575 329.792392 
L 58.575 326.13684 
L 58.575 323.827044 
L 63.536005 324.358056 
L 68.497026 324.861674 
L 73.458032 325.33772 
L 78.419037 325.784248 
L 82.703414 326.13684 
L 83.380058 326.191437 
L 88.341063 326.511705 
L 93.302069 326.721573 
L 98.263074 326.815904 
L 103.224095 326.785324 
L 108.185101 326.612843 
L 113.146106 326.267475 
L 114.331948 326.13684 
L 118.107127 325.722916 
L 123.068132 325.034683 
L 128.029138 324.182698 
L 132.990159 323.0511 
L 134.850519 322.481288 
L 137.951164 321.474164 
L 142.912169 319.640233 
L 144.651613 318.825724 
L 147.87319 317.138822 
L 151.092181 315.170172 
L 152.834196 313.8982 
L 155.722982 311.51462 
L 157.795201 309.384732 
L 159.169576 307.859056 
L 161.587294 304.203504 
L 162.756222 301.944572 
L 163.46004 300.547952 
L 164.684172 296.892389 
L 165.423602 293.236836 
L 165.797503 289.581284 
L 165.863809 285.925727 
L 165.663796 282.270169 
L 165.230216 278.614617 
L 164.57976 274.959059 
L 163.704298 271.303501 
L 162.756222 268.197561 
L 162.578894 267.647949 
L 161.35432 263.992391 
L 160.052982 260.336839 
L 158.627833 256.681281 
L 157.795201 254.552733 
L 157.124174 253.025723 
L 155.736522 249.370171 
L 154.53424 245.714614 
L 153.827244 242.059061 
L 154.904026 238.403504 
L 157.795201 236.950336 
L 162.756222 236.094964 
L 167.717227 235.878103 
L 172.678233 235.923305 
L 177.639246 236.114498 
L 182.600259 236.402182 
L 187.561265 236.761292 
L 192.522278 237.17959 
L 197.483291 237.65359 
L 202.444296 238.184711 
L 204.320122 238.403504 
L 207.405309 238.772306 
L 212.366315 239.322943 
L 217.327328 239.799294 
L 222.288341 240.178045 
L 227.249347 240.423873 
L 232.21036 240.488783 
L 237.171365 240.316761 
L 242.132378 239.844875 
L 247.093391 238.985822 
L 249.2884 238.403504 
L 252.054401 237.620142 
L 257.01541 235.748983 
L 259.013243 234.747946 
L 261.976419 233.10477 
L 264.937953 231.092391 
L 266.937429 229.55894 
L 269.338953 227.436836 
L 271.898442 224.87572 
L 272.908176 223.781281 
L 275.890827 220.125726 
L 276.859451 218.888496 
L 278.663476 216.470168 
L 281.17286 212.814613 
L 281.82046 211.893409 
L 283.713613 209.159058 
L 286.157311 205.503502 
L 286.781471 204.61904 
L 288.770378 201.847946 
L 291.386825 198.192391 
L 291.742482 197.720058 
L 294.225587 194.536835 
L 296.703492 191.408756 
L 297.163283 190.88129 
L 300.244905 187.225734 
L 301.664502 185.565325 
L 303.515023 183.570179 
L 306.625498 180.152001 
L 306.864992 179.914623 
L 310.394367 176.259067 
L 311.586508 175.020765 
L 314.147591 172.603512 
L 316.547518 170.347749 
L 318.224104 168.947957 
L 321.508529 166.286174 
L 322.932405 165.292399 
L 326.46954 162.985269 
L 329.006832 161.636844 
L 331.430549 160.470706 
L 336.391558 158.665921 
L 338.861842 157.981289 
L 341.352571 157.372099 
L 346.313581 156.508928 
L 351.27459 155.932196 
L 356.235599 155.544955 
L 361.196609 155.280039 
L 366.157622 155.087198 
L 371.118635 154.925494 
L 376.07964 154.758093 
L 381.040653 154.547836 
L 384.773793 154.325734 
L 386.001659 154.256533 
L 390.962672 153.869417 
L 395.923685 153.349216 
L 400.884691 152.653149 
L 405.845704 151.700266 
L 409.61515 150.670179 
L 410.806709 150.336645 
L 415.767722 148.663868 
L 419.441048 147.014621 
L 420.728735 146.40372 
L 425.689741 143.569618 
L 425.991011 143.359064 
L 430.650754 139.867994 
L 430.841019 139.703511 
L 434.607405 136.047954 
L 435.611767 134.993878 
L 437.78216 132.392402 
L 440.321684 128.736844 
L 440.572773 128.359682 
L 442.483651 125.081286 
L 444.084241 121.425734 
L 445.490407 117.770176 
L 445.533778 117.637868 
L 446.591937 114.114624 
L 447.275886 110.459066 
L 447.651314 106.803508 
L 447.758351 103.147956 
L 447.608782 99.492398 
L 447.197758 95.836841 
L 446.488872 92.181289 
L 445.533778 89.007371 
L 445.378161 88.525736 
L 444.01717 84.870173 
L 442.467502 81.214621 
L 440.572773 77.872244 
L 440.369959 77.559069 
L 437.884783 73.903505 
L 435.611767 71.143518 
L 434.765571 70.247953 
L 431.013575 66.592401 
L 430.650754 66.283004 
L 426.100629 62.936837 
L 425.689741 62.656231 
L 420.728735 59.923759 
L 419.313326 59.281285 
L 415.767722 57.760823 
L 410.806709 56.218047 
L 408.421668 55.625733 
L 405.845704 54.982212 
L 400.884691 54.148517 
L 395.923685 53.602465 
L 390.962672 53.249953 
L 386.001659 53.031568 
L 381.040653 52.899945 
L 376.07964 52.813167 
L 371.118635 52.733252 
L 366.157622 52.625103 
L 361.196609 52.454649 
L 356.235599 52.18624 
L 353.50994 51.97017 
L 351.27459 51.773256 
L 346.313581 51.19938 
L 341.352571 50.456003 
L 336.391558 49.509974 
L 331.430549 48.318742 
L 331.415226 48.314618 
L 326.46954 46.896724 
L 321.508529 45.370346 
L 319.261187 44.659066 
L 316.547518 43.751544 
L 311.586508 42.234638 
L 307.04284 41.003502 
L 306.625498 40.884767 
L 301.664502 39.825213 
L 296.703492 39.164049 
L 291.742482 38.959817 
L 286.781471 39.289058 
L 281.82046 40.25094 
L 279.595281 41.003502 
L 276.859451 42.024268 
L 272.1671 44.659066 
L 271.898442 44.836908 
L 267.960197 48.314618 
L 266.937429 49.452605 
L 265.098929 51.97017 
L 263.136133 55.625733 
L 261.976419 58.671338 
L 261.770342 59.281285 
L 260.954579 62.936837 
L 260.539558 66.592401 
L 260.451437 70.247953 
L 260.634194 73.903505 
L 261.041163 77.559069 
L 261.631448 81.214621 
L 261.976419 82.937944 
L 262.378467 84.870173 
L 263.190604 88.525736 
L 263.982546 92.181289 
L 264.693315 95.836841 
L 265.253412 99.492398 
L 265.579644 103.147956 
L 265.576835 106.803508 
L 265.141607 110.459066 
L 264.153335 114.114624 
L 262.428515 117.770176 
L 261.976419 118.424072 
L 259.856527 121.425734 
L 257.01541 124.260184 
L 256.131712 125.081286 
L 252.054401 127.994906 
L 250.91287 128.736844 
L 247.093391 130.74207 
L 243.533582 132.392402 
L 242.132378 132.950653 
L 237.171365 134.695943 
L 232.960499 136.047954 
L 232.21036 136.268131 
L 227.249347 137.602394 
L 222.288341 138.830035 
L 218.964927 139.703511 
L 217.327328 140.109671 
L 212.366315 141.308733 
L 207.405309 142.552263 
L 204.704952 143.359064 
L 202.444296 144.007861 
L 197.483291 145.456908 
L 192.975259 147.014621 
L 192.522278 147.177521 
L 187.561265 149.003693 
L 183.641178 150.670179 
L 182.600259 151.132009 
L 177.639246 153.362371 
L 175.803309 154.325734 
L 172.678233 155.968776 
L 169.115245 157.981289 
L 167.717227 158.824174 
L 163.214581 161.636844 
L 162.756222 161.951024 
L 158.044507 165.292399 
L 157.795201 165.487955 
L 153.582622 168.947957 
L 152.834196 169.636843 
L 149.748237 172.603512 
L 147.87319 174.725041 
L 146.511517 176.259067 
L 144.036232 179.914623 
L 142.912169 181.902839 
L 141.953567 183.570179 
L 140.49155 187.225734 
L 139.476431 190.88129 
L 138.797015 194.536835 
L 138.411059 198.192391 
L 138.282677 201.847946 
L 138.367416 205.503502 
L 138.617159 209.159058 
L 138.985922 212.814613 
L 139.425183 216.470168 
L 139.858345 220.125726 
L 140.101143 223.781281 
L 139.524582 227.436836 
L 137.951164 229.202835 
L 134.079544 231.092391 
L 132.990159 231.318161 
L 128.029138 232.136612 
L 123.068132 232.782623 
L 118.107127 233.411259 
L 113.146106 234.099419 
L 109.239342 234.747946 
L 108.185101 234.901999 
L 103.224095 235.766317 
L 98.263074 236.712305 
L 93.302069 237.793602 
L 90.945254 238.403504 
L 88.341063 239.052976 
L 83.380058 240.310126 
L 78.419037 241.670624 
L 77.115179 242.059061 
L 73.458032 243.139218 
L 68.497026 244.540986 
L 64.505467 245.714614 
L 63.536005 246.023794 
L 58.575 247.428487 
L 58.575 245.714614 
L 58.575 242.059061 
L 58.575 238.403504 
L 58.575 234.747946 
L 58.575 231.092391 
L 58.575 227.436836 
L 58.575 223.781281 
L 58.575 220.125726 
L 58.575 216.470168 
L 58.575 212.814613 
L 58.575 209.159058 
L 58.575 205.503502 
L 58.575 201.847946 
L 58.575 198.192391 
L 58.575 194.536835 
L 58.575 190.88129 
L 58.575 187.225734 
L 58.575 183.570179 
L 58.575 179.914623 
L 58.575 176.259067 
L 58.575 172.603512 
L 58.575 168.947957 
L 58.575 165.292399 
L 58.575 161.636844 
L 58.575 157.981289 
L 58.575 154.325734 
L 58.575 150.670179 
L 58.575 147.014621 
L 58.575 143.359064 
L 58.575 139.703511 
L 58.575 136.047954 
L 58.575 132.392402 
L 58.575 128.736844 
L 58.575 125.081286 
L 58.575 121.425734 
L 58.575 117.770176 
L 58.575 114.114624 
L 58.575 110.459066 
L 58.575 106.803508 
L 58.575 103.147956 
L 58.575 99.492398 
L 58.575 95.836841 
L 58.575 92.181289 
L 58.575 88.525736 
L 58.575 84.870173 
L 58.575 81.214621 
L 58.575 77.559069 
L 58.575 73.903505 
L 58.575 70.247953 
L 58.575 66.592401 
L 58.575 62.936837 
L 58.575 59.281285 
L 58.575 55.625733 
L 58.575 51.97017 
L 58.575 48.314618 
L 58.575 44.659066 
L 58.575 41.003502 
L 58.575 37.34795 
L 58.575 33.692398 
L 58.575 30.036846 
L 58.575 26.381282 
L 58.575 22.72573 
L 58.575 19.070178 
L 58.575 15.414615 
L 58.575 11.759062 
L 63.536005 11.759062 
L 68.497026 11.759062 
L 73.458032 11.759062 
L 78.419037 11.759062 
L 83.380058 11.759062 
L 88.341063 11.759062 
L 93.302069 11.759062 
L 98.263074 11.759062 
L 103.224095 11.759062 
L 108.185101 11.759062 
L 113.146106 11.759062 
L 118.107127 11.759062 
L 123.068132 11.759062 
L 128.029138 11.759062 
L 132.990159 11.759062 
L 137.951164 11.759062 
L 142.912169 11.759062 
L 147.87319 11.759062 
L 152.834196 11.759062 
L 157.795201 11.759062 
L 162.756222 11.759062 
L 167.717227 11.759062 
L 172.678233 11.759062 
L 177.639246 11.759062 
L 182.600259 11.759062 
L 187.561265 11.759062 
L 192.522278 11.759062 
L 197.483291 11.759062 
L 202.444296 11.759062 
L 207.405309 11.759062 
L 212.366315 11.759062 
L 217.327328 11.759062 
L 222.288341 11.759062 
L 227.249347 11.759062 
L 232.21036 11.759062 
L 237.171365 11.759062 
L 242.132378 11.759062 
L 247.093391 11.759062 
L 252.054401 11.759062 
L 257.01541 11.759062 
L 261.976419 11.759062 
L 266.937429 11.759062 
L 271.898442 11.759062 
L 276.859451 11.759062 
L 281.82046 11.759062 
L 286.781471 11.759062 
L 291.742482 11.759062 
L 296.703492 11.759062 
L 301.664502 11.759062 
L 306.625498 11.759062 
L 311.586508 11.759062 
L 316.547518 11.759062 
L 321.508529 11.759062 
L 326.46954 11.759062 
L 331.430549 11.759062 
L 336.391558 11.759062 
L 341.352571 11.759062 
L 346.313581 11.759062 
L 351.27459 11.759062 
L 356.235599 11.759062 
L 361.196609 11.759062 
L 366.157622 11.759062 
L 371.118635 11.759062 
L 376.07964 11.759062 
L 381.040653 11.759062 
L 386.001659 11.759062 
L 390.962672 11.759062 
L 395.923685 11.759062 
L 400.884691 11.759062 
L 405.845704 11.759062 
L 410.806709 11.759062 
L 415.767722 11.759062 
L 420.728735 11.759062 
L 425.689741 11.759062 
L 430.650754 11.759062 
L 435.611767 11.759062 
L 440.572773 11.759062 
L 445.533778 11.759062 
L 450.494799 11.759062 
L 455.455804 11.759062 
L 460.41681 11.759062 
L 465.377831 11.759062 
L 470.338836 11.759062 
L 475.299841 11.759062 
L 480.260862 11.759062 
L 485.221868 11.759062 
L 490.182873 11.759062 
L 495.143894 11.759062 
L 500.104899 11.759062 
L 505.065905 11.759062 
L 510.026926 11.759062 
L 514.987931 11.759062 
L 519.948937 11.759062 
L 524.909942 11.759062 
L 529.870963 11.759062 
L 534.831968 11.759062 
L 539.792974 11.759062 
L 544.753995 11.759062 
L 549.715 11.759062 
L 549.715 15.414615 
L 549.715 19.070178 
L 549.715 22.72573 
L 549.715 26.381282 
L 549.715 30.036846 
L 549.715 33.692398 
L 549.715 37.34795 
L 549.715 41.003502 
L 549.715 44.659066 
L 549.715 48.314618 
L 549.715 51.97017 
L 549.715 55.625733 
L 549.715 59.281285 
L 549.715 62.936837 
L 549.715 66.592401 
L 549.715 70.247953 
L 549.715 73.903505 
L 549.715 77.559069 
L 549.715 81.214621 
L 549.715 84.870173 
L 549.715 88.525736 
L 549.715 92.181289 
L 549.715 95.836841 
L 549.715 99.492398 
L 549.715 103.147956 
L 549.715 106.803508 
L 549.715 110.459066 
L 549.715 114.114624 
L 549.715 117.770176 
L 549.715 121.425734 
L 549.715 125.081286 
L 549.715 128.736844 
L 549.715 132.392402 
L 549.715 136.047954 
L 549.715 139.703511 
L 549.715 143.359064 
L 549.715 147.014621 
L 549.715 150.670179 
L 549.715 154.325734 
L 549.715 157.981289 
L 549.715 161.636844 
L 549.715 165.292399 
L 549.715 168.947957 
L 549.715 172.603512 
L 549.715 176.259067 
L 549.715 179.914623 
L 549.715 183.570179 
L 549.715 187.225734 
L 549.715 190.88129 
L 549.715 194.536835 
L 549.715 198.192391 
L 549.715 201.847946 
L 549.715 205.503502 
L 549.715 209.159058 
L 549.715 212.814613 
L 549.715 216.470168 
L 549.715 220.125726 
L 549.715 223.781281 
L 549.715 227.436836 
L 549.715 231.092391 
L 549.715 234.747946 
L 549.715 238.403504 
L 549.715 242.059061 
L 549.715 245.714614 
L 549.715 249.370171 
L 549.715 253.025723 
L 549.715 256.681281 
L 549.715 260.336839 
L 549.715 263.992391 
L 549.715 267.647949 
L 549.715 271.303501 
L 549.715 274.959059 
L 549.715 278.614617 
L 549.715 282.270169 
L 549.715 285.925727 
L 549.715 289.581284 
L 549.715 293.236836 
L 549.715 296.892389 
L 549.715 300.547952 
L 549.715 304.203504 
L 549.715 307.859056 
L 549.715 311.51462 
L 549.715 315.170172 
L 549.715 318.825724 
L 549.715 322.481288 
L 549.715 326.13684 
L 549.715 329.792392 
L 549.715 333.447955 
L 549.715 337.103507 
L 549.715 340.759059 
L 549.715 344.414623 
L 549.715 348.070175 
L 549.715 351.725727 
L 549.715 355.381279 
L 549.715 359.036843 
L 549.715 362.692395 
L 549.715 366.347947 
L 549.715 370.00351 
L 549.715 373.659062 
L 544.753995 373.659062 
L 539.792974 373.659062 
L 534.831968 373.659062 
L 529.870963 373.659062 
L 524.909942 373.659062 
L 519.948937 373.659062 
L 514.987931 373.659062 
L 510.026926 373.659062 
L 505.065905 373.659062 
L 500.104899 373.659062 
L 495.143894 373.659062 
L 490.182873 373.659062 
L 485.221868 373.659062 
L 480.260862 373.659062 
L 475.299841 373.659062 
L 470.338836 373.659062 
L 465.377831 373.659062 
L 460.41681 373.659062 
L 455.455804 373.659062 
L 450.494799 373.659062 
L 445.533778 373.659062 
L 440.572773 373.659062 
L 435.611767 373.659062 
L 430.650754 373.659062 
L 425.689741 373.659062 
L 420.728735 373.659062 
L 415.767722 373.659062 
L 410.806709 373.659062 
L 405.845704 373.659062 
L 400.884691 373.659062 
L 395.923685 373.659062 
L 390.962672 373.659062 
L 386.001659 373.659062 
L 381.040653 373.659062 
L 376.07964 373.659062 
L 371.118635 373.659062 
L 366.157622 373.659062 
L 361.196609 373.659062 
L 356.235599 373.659062 
L 351.27459 373.659062 
L 346.313581 373.659062 
L 341.352571 373.659062 
L 336.391558 373.659062 
L 331.430549 373.659062 
L 326.46954 373.659062 
L 321.508529 373.659062 
L 316.547518 373.659062 
L 311.586508 373.659062 
L 306.625498 373.659062 
L 301.664502 373.659062 
L 296.703492 373.659062 
L 291.742482 373.659062 
L 286.781471 373.659062 
L 281.82046 373.659062 
L 276.859451 373.659062 
L 271.898442 373.659062 
L 266.937429 373.659062 
L 261.976419 373.659062 
L 257.01541 373.659062 
L 252.054401 373.659062 
L 247.093391 373.659062 
L 242.132378 373.659062 
L 237.171365 373.659062 
L 232.21036 373.659062 
L 227.249347 373.659062 
L 222.288341 373.659062 
L 217.327328 373.659062 
L 212.366315 373.659062 
L 207.405309 373.659062 
L 202.444296 373.659062 
L 197.483291 373.659062 
L 192.522278 373.659062 
L 187.561265 373.659062 
L 182.600259 373.659062 
L 177.639246 373.659062 
L 172.678233 373.659062 
L 167.717227 373.659062 
L 162.756222 373.659062 
L 157.795201 373.659062 
L 152.834196 373.659062 
L 147.87319 373.659062 
L 142.912169 373.659062 
L 137.951164 373.659062 
L 132.990159 373.659062 
L 128.029138 373.659062 
L 123.068132 373.659062 
L 118.107127 373.659062 
L 113.146106 373.659062 
L 108.185101 373.659062 
L 103.224095 373.659062 
L 98.263074 373.659062 
L 93.302069 373.659062 
L 88.341063 373.659062 
L 83.380058 373.659062 
L 78.419037 373.659062 
L 73.458032 373.659062 
L 68.497026 373.659062 
L 63.536005 373.659062 
L 58.575 373.659062 
z
" clip-path="url(#p0d7ad626e0)" style="fill: #8db0fe; fill-opacity: 0.2"/>
    <path d="M 58.575 322.481288 
L 58.575 318.825724 
L 58.575 315.170172 
L 58.575 311.51462 
L 58.575 307.859056 
L 58.575 304.203504 
L 58.575 300.547952 
L 58.575 296.892389 
L 58.575 293.236836 
L 58.575 289.581284 
L 58.575 285.925727 
L 58.575 282.270169 
L 58.575 278.614617 
L 58.575 274.959059 
L 58.575 271.303501 
L 58.575 267.647949 
L 58.575 263.992391 
L 58.575 260.336839 
L 58.575 256.681281 
L 58.575 253.025723 
L 58.575 249.370171 
L 58.575 247.428487 
L 63.536005 246.023794 
L 64.505467 245.714614 
L 68.497026 244.540986 
L 73.458032 243.139218 
L 77.115179 242.059061 
L 78.419037 241.670624 
L 83.380058 240.310126 
L 88.341063 239.052976 
L 90.945254 238.403504 
L 93.302069 237.793602 
L 98.263074 236.712305 
L 103.224095 235.766317 
L 108.185101 234.901999 
L 109.239342 234.747946 
L 113.146106 234.099419 
L 118.107127 233.411259 
L 123.068132 232.782623 
L 128.029138 232.136612 
L 132.990159 231.318161 
L 134.079544 231.092391 
L 137.951164 229.202835 
L 139.524582 227.436836 
L 140.101143 223.781281 
L 139.858345 220.125726 
L 139.425183 216.470168 
L 138.985922 212.814613 
L 138.617159 209.159058 
L 138.367416 205.503502 
L 138.282677 201.847946 
L 138.411059 198.192391 
L 138.797015 194.536835 
L 139.476431 190.88129 
L 140.49155 187.225734 
L 141.953567 183.570179 
L 142.912169 181.902839 
L 144.036232 179.914623 
L 146.511517 176.259067 
L 147.87319 174.725041 
L 149.748237 172.603512 
L 152.834196 169.636843 
L 153.582622 168.947957 
L 157.795201 165.487955 
L 158.044507 165.292399 
L 162.756222 161.951024 
L 163.214581 161.636844 
L 167.717227 158.824174 
L 169.115245 157.981289 
L 172.678233 155.968776 
L 175.803309 154.325734 
L 177.639246 153.362371 
L 182.600259 151.132009 
L 183.641178 150.670179 
L 187.561265 149.003693 
L 192.522278 147.177521 
L 192.975259 147.014621 
L 197.483291 145.456908 
L 202.444296 144.007861 
L 204.704952 143.359064 
L 207.405309 142.552263 
L 212.366315 141.308733 
L 217.327328 140.109671 
L 218.964927 139.703511 
L 222.288341 138.830035 
L 227.249347 137.602394 
L 232.21036 136.268131 
L 232.960499 136.047954 
L 237.171365 134.695943 
L 242.132378 132.950653 
L 243.533582 132.392402 
L 247.093391 130.74207 
L 250.91287 128.736844 
L 252.054401 127.994906 
L 256.131712 125.081286 
L 257.01541 124.260184 
L 259.856527 121.425734 
L 261.976419 118.424072 
L 262.428515 117.770176 
L 264.153335 114.114624 
L 265.141607 110.459066 
L 265.576835 106.803508 
L 265.579644 103.147956 
L 265.253412 99.492398 
L 264.693315 95.836841 
L 263.982546 92.181289 
L 263.190604 88.525736 
L 262.378467 84.870173 
L 261.976419 82.937944 
L 261.631448 81.214621 
L 261.041163 77.559069 
L 260.634194 73.903505 
L 260.451437 70.247953 
L 260.539558 66.592401 
L 260.954579 62.936837 
L 261.770342 59.281285 
L 261.976419 58.671338 
L 263.136133 55.625733 
L 265.098929 51.97017 
L 266.937429 49.452605 
L 267.960197 48.314618 
L 271.898442 44.836908 
L 272.1671 44.659066 
L 276.859451 42.024268 
L 279.595281 41.003502 
L 281.82046 40.25094 
L 286.781471 39.289058 
L 291.742482 38.959817 
L 296.703492 39.164049 
L 301.664502 39.825213 
L 306.625498 40.884767 
L 307.04284 41.003502 
L 311.586508 42.234638 
L 316.547518 43.751544 
L 319.261187 44.659066 
L 321.508529 45.370346 
L 326.46954 46.896724 
L 331.415226 48.314618 
L 331.430549 48.318742 
L 336.391558 49.509974 
L 341.352571 50.456003 
L 346.313581 51.19938 
L 351.27459 51.773256 
L 353.50994 51.97017 
L 356.235599 52.18624 
L 361.196609 52.454649 
L 366.157622 52.625103 
L 371.118635 52.733252 
L 376.07964 52.813167 
L 381.040653 52.899945 
L 386.001659 53.031568 
L 390.962672 53.249953 
L 395.923685 53.602465 
L 400.884691 54.148517 
L 405.845704 54.982212 
L 408.421668 55.625733 
L 410.806709 56.218047 
L 415.767722 57.760823 
L 419.313326 59.281285 
L 420.728735 59.923759 
L 425.689741 62.656231 
L 426.100629 62.936837 
L 430.650754 66.283004 
L 431.013575 66.592401 
L 434.765571 70.247953 
L 435.611767 71.143518 
L 437.884783 73.903505 
L 440.369959 77.559069 
L 440.572773 77.872244 
L 442.467502 81.214621 
L 444.01717 84.870173 
L 445.378161 88.525736 
L 445.533778 89.007371 
L 446.488872 92.181289 
L 447.197758 95.836841 
L 447.608782 99.492398 
L 447.758351 103.147956 
L 447.651314 106.803508 
L 447.275886 110.459066 
L 446.591937 114.114624 
L 445.533778 117.637868 
L 445.490407 117.770176 
L 444.084241 121.425734 
L 442.483651 125.081286 
L 440.572773 128.359682 
L 440.321684 128.736844 
L 437.78216 132.392402 
L 435.611767 134.993878 
L 434.607405 136.047954 
L 430.841019 139.703511 
L 430.650754 139.867994 
L 425.991011 143.359064 
L 425.689741 143.569618 
L 420.728735 146.40372 
L 419.441048 147.014621 
L 415.767722 148.663868 
L 410.806709 150.336645 
L 409.61515 150.670179 
L 405.845704 151.700266 
L 400.884691 152.653149 
L 395.923685 153.349216 
L 390.962672 153.869417 
L 386.001659 154.256533 
L 384.773793 154.325734 
L 381.040653 154.547836 
L 376.07964 154.758093 
L 371.118635 154.925494 
L 366.157622 155.087198 
L 361.196609 155.280039 
L 356.235599 155.544955 
L 351.27459 155.932196 
L 346.313581 156.508928 
L 341.352571 157.372099 
L 338.861842 157.981289 
L 336.391558 158.665921 
L 331.430549 160.470706 
L 329.006832 161.636844 
L 326.46954 162.985269 
L 322.932405 165.292399 
L 321.508529 166.286174 
L 318.224104 168.947957 
L 316.547518 170.347749 
L 314.147591 172.603512 
L 311.586508 175.020765 
L 310.394367 176.259067 
L 306.864992 179.914623 
L 306.625498 180.152001 
L 303.515023 183.570179 
L 301.664502 185.565325 
L 300.244905 187.225734 
L 297.163283 190.88129 
L 296.703492 191.408756 
L 294.225587 194.536835 
L 291.742482 197.720058 
L 291.386825 198.192391 
L 288.770378 201.847946 
L 286.781471 204.61904 
L 286.157311 205.503502 
L 283.713613 209.159058 
L 281.82046 211.893409 
L 281.17286 212.814613 
L 278.663476 216.470168 
L 276.859451 218.888496 
L 275.890827 220.125726 
L 272.908176 223.781281 
L 271.898442 224.87572 
L 269.338953 227.436836 
L 266.937429 229.55894 
L 264.937953 231.092391 
L 261.976419 233.10477 
L 259.013243 234.747946 
L 257.01541 235.748983 
L 252.054401 237.620142 
L 249.2884 238.403504 
L 247.093391 238.985822 
L 242.132378 239.844875 
L 237.171365 240.316761 
L 232.21036 240.488783 
L 227.249347 240.423873 
L 222.288341 240.178045 
L 217.327328 239.799294 
L 212.366315 239.322943 
L 207.405309 238.772306 
L 204.320122 238.403504 
L 202.444296 238.184711 
L 197.483291 237.65359 
L 192.522278 237.17959 
L 187.561265 236.761292 
L 182.600259 236.402182 
L 177.639246 236.114498 
L 172.678233 235.923305 
L 167.717227 235.878103 
L 162.756222 236.094964 
L 157.795201 236.950336 
L 154.904026 238.403504 
L 153.827244 242.059061 
L 154.53424 245.714614 
L 155.736522 249.370171 
L 157.124174 253.025723 
L 157.795201 254.552733 
L 158.627833 256.681281 
L 160.052982 260.336839 
L 161.35432 263.992391 
L 162.578894 267.647949 
L 162.756222 268.197561 
L 163.704298 271.303501 
L 164.57976 274.959059 
L 165.230216 278.614617 
L 165.663796 282.270169 
L 165.863809 285.925727 
L 165.797503 289.581284 
L 165.423602 293.236836 
L 164.684172 296.892389 
L 163.46004 300.547952 
L 162.756222 301.944572 
L 161.587294 304.203504 
L 159.169576 307.859056 
L 157.795201 309.384732 
L 155.722982 311.51462 
L 152.834196 313.8982 
L 151.092181 315.170172 
L 147.87319 317.138822 
L 144.651613 318.825724 
L 142.912169 319.640233 
L 137.951164 321.474164 
L 134.850519 322.481288 
L 132.990159 323.0511 
L 128.029138 324.182698 
L 123.068132 325.034683 
L 118.107127 325.722916 
L 114.331948 326.13684 
L 113.146106 326.267475 
L 108.185101 326.612843 
L 103.224095 326.785324 
L 98.263074 326.815904 
L 93.302069 326.721573 
L 88.341063 326.511705 
L 83.380058 326.191437 
L 82.703414 326.13684 
L 78.419037 325.784248 
L 73.458032 325.33772 
L 68.497026 324.861674 
L 63.536005 324.358056 
L 58.575 323.827044 
z
" clip-path="url(#p0d7ad626e0)" style="fill: #f4987a; fill-opacity: 0.2"/>
   </g>
   <g id="patch_3">
    <path d="M 58.575 373.659062 
L 58.575 11.759062 
" style="fill: none; stroke: #cccccc; stroke-width: 0.8; stroke-linejoin: miter; stroke-linecap: square"/>
   </g>
   <g id="patch_4">
    <path d="M 549.715 373.659062 
L 549.715 11.759062 
" style="fill: none; stroke: #cccccc; stroke-width: 0.8; stroke-linejoin: miter; stroke-linecap: square"/>
   </g>
   <g id="patch_5">
    <path d="M 58.575 373.659062 
L 549.715 373.659062 
" style="fill: none; stroke: #cccccc; stroke-width: 0.8; stroke-linejoin: miter; stroke-linecap: square"/>
   </g>
   <g id="patch_6">
    <path d="M 58.575 11.759062 
L 549.715 11.759062 
" style="fill: none; stroke: #cccccc; stroke-width: 0.8; stroke-linejoin: miter; stroke-linecap: square"/>
   </g>
  </g>
 </g>
 <defs>
  <clipPath id="p0d7ad626e0">
   <rect x="58.575" y="11.759062" width="491.14" height="361.9"/>
  </clipPath>
 </defs>
</svg>
